<svg width="369" height="495" viewBox="0 0 369 495" fill="none" xmlns="http://www.w3.org/2000/svg">
<g filter="url(#filter0_d_89_6)">
<path d="M76.3217 189.449C76.3217 189.449 76.2891 189.447 76.2248 189.444C76.1667 189.442 76.081 189.44 75.9668 189.436C75.7097 189.434 75.3089 189.435 74.7734 189.477C73.7075 189.552 72.101 189.763 70.1191 190.344C68.1393 190.922 65.78 191.888 63.3096 193.447C60.832 194.991 58.2789 197.167 55.9013 199.946C53.5604 202.751 51.3358 206.103 49.512 209.95C47.6934 213.773 46.0675 218.068 44.9669 222.546C43.951 226.998 43.9592 231.87 44.8935 236.647C45.8339 241.436 47.6352 246.141 49.8905 250.617C54.4509 259.582 60.681 267.608 66.138 275.374C68.8268 279.277 71.4798 283.106 72.9731 287.277C73.6901 289.337 74.0461 291.619 73.3035 293.638C72.9496 294.636 72.3223 295.504 71.6226 296.21C70.9616 296.932 70.2129 297.601 69.4571 298.18C67.9475 299.363 66.2288 300.142 64.5244 300.513C62.8077 300.855 61.1094 300.755 59.6213 300.309C56.6204 299.42 54.508 297.499 53.1932 295.742C51.856 293.959 51.2848 292.261 51.0482 291.107C50.9288 290.527 50.8809 290.071 50.8737 289.766C50.8615 289.46 50.8554 289.302 50.8554 289.302C50.8554 289.302 50.8635 289.46 50.8788 289.766C50.889 290.071 50.9411 290.526 51.0665 291.104C51.3144 292.253 51.9029 293.94 53.2524 295.698C54.5774 297.432 56.699 299.313 59.6641 300.156C61.1349 300.58 62.8026 300.658 64.4795 300.306C66.1442 299.913 67.8057 299.117 69.2623 297.929C69.9998 297.339 70.6913 296.7 71.3492 295.954C72.0214 295.247 72.5814 294.435 72.8966 293.494C73.5524 291.606 73.1883 289.453 72.4529 287.462C70.929 283.438 68.2301 279.677 65.4791 275.845C59.8977 268.208 53.488 260.279 48.6746 251.252C46.2542 246.763 44.259 241.986 43.1381 237.016C42.0252 232.05 41.8529 226.915 42.8157 222.075C43.85 217.311 45.3657 212.934 47.1589 208.854C48.947 204.784 51.192 201.157 53.6257 198.068C56.1053 195.011 58.8073 192.519 61.494 190.691C64.1745 188.851 66.798 187.655 69.0359 186.908C71.2778 186.156 73.1352 185.836 74.4266 185.695C75.0712 185.622 75.5812 185.598 75.9362 185.588C76.1289 185.587 76.2748 185.586 76.3727 185.585C76.4645 185.587 76.5104 185.588 76.5104 185.588L76.3217 189.449Z" fill="#39393F"/>
<path d="M77.7849 192.081L75.5032 189.343C75.5032 189.343 56.7902 185.691 48.5741 214.446C40.358 243.201 56.3333 253.242 69.5698 271.499C82.8064 289.756 76.873 323.987 55.8773 318.053C55.8773 318.053 77.7859 325.357 80.0677 298.428C80.0677 298.428 80.5236 330.834 65.4623 330.834C65.4623 330.834 97.8687 340.875 95.13 286.561C92.3903 232.246 77.7849 192.081 77.7849 192.081Z" fill="#39393F"/>
<path d="M136.166 24.3422C136.166 24.3422 169.032 -1.6301 192.979 20.8793C216.924 43.3886 196.265 71.0918 213.169 105.288C230.072 139.485 195.796 187.533 151.661 171.517C111.04 156.777 116.915 49.4484 136.166 24.3422Z" fill="#39393F"/>
<path d="M133.818 27.5071C133.818 27.5071 134.653 26.837 136.308 25.7017C137.968 24.5767 140.434 22.9549 143.765 21.2219C147.09 19.4859 151.265 17.5927 156.304 16.0842C161.334 14.6327 167.31 13.5444 173.849 14.2012C177.106 14.5174 180.473 15.313 183.757 16.6594C187.041 18.0018 190.221 19.9153 193.127 22.3113L194.226 23.2089L195.267 24.185C195.944 24.8245 196.632 25.4447 197.287 26.1924C197.945 26.9145 198.643 27.6193 199.23 28.4017C199.84 29.1708 200.477 29.9255 201.015 30.765C203.303 34.0198 205.048 37.7693 206.202 41.7331C208.453 49.7288 208.359 58.254 208.288 66.6272C208.193 75.0238 208.327 83.5112 210.084 91.7284C210.931 95.8328 212.153 99.8527 213.749 103.706C214.153 104.668 214.537 105.637 215.008 106.566L215.684 107.974L216.378 109.452C216.811 110.427 217.281 111.35 217.68 112.363C218.053 113.405 218.426 114.447 218.799 115.486C221.385 123.821 221.181 132.658 219.133 140.589C218.094 144.564 216.573 148.328 214.719 151.801C213.826 153.56 212.75 155.187 211.718 156.807C210.59 158.365 209.496 159.917 208.257 161.323C205.843 164.179 203.231 166.741 200.448 168.89C199.107 170.03 197.633 170.943 196.251 171.921C195.53 172.368 194.8 172.783 194.087 173.209C193.729 173.42 193.373 173.629 193.019 173.838C192.657 174.033 192.286 174.207 191.923 174.39C186.125 177.372 180.281 178.953 175.053 179.536C169.812 180.14 165.208 179.774 161.499 179.231C160.573 179.077 159.696 178.932 158.871 178.795C158.052 178.626 157.297 178.407 156.589 178.237C155.883 178.058 155.23 177.893 154.631 177.741C154.037 177.578 153.512 177.376 153.033 177.224C151.132 176.587 150.118 176.248 150.118 176.248C150.118 176.248 151.147 176.536 153.076 177.079C153.559 177.206 154.091 177.382 154.691 177.515C155.293 177.637 155.951 177.769 156.662 177.912C157.373 178.048 158.132 178.223 158.95 178.357C159.772 178.463 160.646 178.575 161.571 178.694C165.26 179.095 169.81 179.287 174.916 178.507C180.012 177.737 185.626 175.986 191.189 173.002C191.537 172.817 191.888 172.632 192.24 172.444C192.579 172.234 192.919 172.023 193.261 171.81C193.942 171.381 194.641 170.965 195.327 170.517C196.644 169.538 198.049 168.627 199.321 167.495C201.964 165.36 204.427 162.83 206.689 160.028C207.852 158.649 208.869 157.13 209.921 155.611C210.876 154.03 211.875 152.449 212.691 150.745C214.372 147.371 215.823 143.781 216.756 139.98C218.635 132.402 218.649 124.084 216.23 116.292C215.891 115.352 215.551 114.408 215.21 113.464C214.835 112.514 214.341 111.548 213.911 110.588L213.603 109.92L213.249 109.191L212.541 107.73C212.047 106.765 211.642 105.758 211.218 104.758C209.542 100.75 208.248 96.5621 207.356 92.2975C205.563 83.7479 205.474 75.0085 205.599 66.6048C205.635 62.3952 205.722 58.2418 205.534 54.1812C205.338 50.1246 204.856 46.1527 203.845 42.3961C202.807 38.6496 201.197 35.1622 199.134 32.0471C198.65 31.2464 198.061 30.5233 197.503 29.7838C196.962 29.0239 196.334 28.369 195.74 27.6826C195.17 26.993 194.482 26.3413 193.82 25.6874L192.853 24.7378L191.829 23.8647C186.426 19.1503 179.912 16.4768 173.677 15.7567C167.425 15.0193 161.578 15.8414 156.581 17.0817C151.578 18.3822 147.371 20.104 144.009 21.7064C140.649 23.3221 138.095 24.7776 136.393 25.8292C134.685 26.8778 133.818 27.5071 133.818 27.5071Z" fill="#39393F"/>
<path d="M146.248 142.788C146.248 142.788 142.597 161.957 147.161 165.609C151.726 169.261 193.26 177.02 197.368 189.343C201.475 201.667 75.5032 234.529 69.5699 221.293C63.6365 208.056 68.201 186.149 91.4785 173.825C114.756 161.501 112.93 131.835 111.561 113.578C110.191 95.3188 146.248 142.788 146.248 142.788Z" fill="#FFD5D5"/>
<path d="M111.305 142.829C115.523 145.779 120.232 148.082 124.678 149.751C131.414 152.279 138.138 153.367 144.937 153.81C145.22 148.193 146.249 142.787 146.249 142.787C146.249 142.787 110.192 95.3196 111.561 113.577C112.184 121.87 112.892 132.52 111.305 142.829Z" fill="#EAC5C5"/>
<path d="M153.095 31.8767C153.095 31.8767 175.459 35.9843 184.131 50.5897C192.803 65.195 192.068 79.7657 194.172 90.7552C198.28 112.207 185.729 140.619 164.733 146.553C143.737 152.487 105.626 124.987 108.822 102.166C112.016 79.3445 114.298 26.3993 153.095 31.8767Z" fill="#FFD5D5"/>
<path d="M167.702 23.6608C167.702 23.6608 175.212 31.2914 171.058 38.2855C171.058 38.2855 133.926 42.3737 131.645 79.3436C129.363 116.313 147.163 138.222 122.06 162.868C96.9564 187.515 98.7822 159.674 76.8736 185.233C76.8736 185.233 59.9865 183.407 59.5295 153.739C59.0736 124.072 71.8532 113.118 63.6371 84.363C55.421 55.6082 71.8522 10.8791 106.54 2.20711C141.228 -6.46289 167.702 23.6608 167.702 23.6608Z" fill="#45454D"/>
<path d="M131.449 85.1655C130.759 85.7184 130.099 86.3253 129.487 87.0189C125.347 91.7058 123.554 98.0298 122.023 103.958C117.921 119.833 114.633 138.194 100.92 148.957C86.2411 160.478 71.7449 153.792 60.1118 141.463C59.6946 145.215 59.459 149.262 59.5273 153.741C59.9833 183.409 76.8714 185.235 76.8714 185.235C98.78 159.674 96.9542 187.516 122.057 162.87C145.812 139.547 131.159 118.667 131.449 85.1655Z" fill="#39393F"/>
<path d="M163.864 36.7292C163.854 36.7251 163.815 36.8903 163.638 37.1657C163.466 37.4432 163.154 37.8216 162.672 38.2347C161.717 39.0731 160.116 40.0268 158.066 41.1529C156.023 42.2922 153.531 43.6488 150.861 45.4604C148.207 47.2831 145.329 49.5189 142.727 52.4535C140.126 55.3758 137.777 58.9519 136.132 63.1074C134.462 67.2476 133.427 71.9018 133.044 76.7886C132.659 81.6765 132.843 86.8 133.31 91.9856C133.785 97.1785 134.522 102.45 135.277 107.732C136.809 118.287 138.547 128.931 138.497 139.118C138.447 144.195 137.912 149.168 136.488 153.685C135.111 158.21 132.673 162.166 129.691 165.028C126.717 167.92 123.321 169.713 120.25 170.885C117.163 172.063 114.357 172.687 112.043 173.078C109.725 173.468 107.885 173.611 106.634 173.706C105.383 173.781 104.715 173.822 104.715 173.822C104.715 173.822 105.378 173.736 106.62 173.571C107.861 173.399 109.673 173.095 111.946 172.591C114.215 172.084 116.949 171.32 119.889 170.016C122.829 168.731 125.944 166.79 128.643 163.987C131.352 161.193 133.44 157.429 134.628 153.127C135.861 148.832 136.238 144.052 136.171 139.121C136.122 134.181 135.607 129.065 134.919 123.878C134.233 118.689 133.412 113.417 132.61 108.124C131.804 102.832 131.062 97.5099 130.625 92.2172C130.197 86.9254 129.972 81.6561 130.489 76.5551C131.008 71.4653 132.154 66.5642 134.076 62.2384C135.98 57.9125 138.565 54.1753 141.45 51.257C144.33 48.3266 147.394 46.1244 150.239 44.474C153.084 42.8104 155.678 41.617 157.792 40.6164C159.902 39.6148 161.558 38.8294 162.565 38.096C163.07 37.7359 163.409 37.3942 163.601 37.1382C163.798 36.8883 163.855 36.723 163.864 36.7292Z" fill="#45454D"/>
<path d="M168.058 27.5622C168.058 27.5622 167.355 26.7033 165.914 25.207C164.472 23.7137 162.292 21.5799 159.308 19.1115C156.321 16.6553 152.546 13.8289 147.873 11.1544C143.206 8.5004 137.627 5.96876 131.209 4.4306C124.813 2.86898 117.565 2.40692 110.144 3.66866C102.728 4.88756 95.2218 7.9802 88.6846 12.8813C82.1097 17.7467 76.6088 24.3665 72.3595 31.8064C68.1316 39.2728 65.2307 47.648 63.8466 56.2486C62.4716 64.8676 62.6389 73.6621 64.7615 82.0149C65.7132 86.3264 66.264 90.7787 66.2874 95.1423C66.3374 99.517 65.858 103.842 65.0186 107.98C63.3345 116.28 60.4867 123.835 58.5599 131.135C56.6025 138.427 55.4408 145.466 55.145 152.035C54.9797 155.328 55.0746 158.421 55.5111 161.36C55.9406 164.289 56.6994 167.01 57.7358 169.431C59.7921 174.296 62.9439 177.867 65.9865 180.165C69.0353 182.491 71.875 183.676 73.8099 184.379C75.7663 185.063 76.8699 185.233 76.8699 185.233C76.8699 185.233 75.7581 185.147 73.7396 184.603C71.7322 184.06 68.7926 183.012 65.5296 180.797C62.3054 178.597 58.7088 175.105 56.3863 170.037C54.0087 165.032 52.8918 158.691 53.0642 151.958C53.1468 148.596 53.4303 145.094 53.9526 141.501C54.4942 137.912 55.2837 134.241 56.2486 130.523C58.1621 123.082 60.9426 115.512 62.5043 107.487C63.2866 103.48 63.713 99.3508 63.6354 95.1729C63.5824 90.9796 63.0275 86.8007 62.0881 82.5952L61.7464 81.0071C61.624 80.4604 61.5047 79.9116 61.4047 79.3598C61.1864 78.2592 61.0171 77.1484 60.8661 76.0346C60.5673 73.8069 60.4041 71.5588 60.351 69.3067C60.247 64.8034 60.5867 60.2827 61.3333 55.8366C62.8296 46.9462 65.8845 38.3283 70.3124 30.6344C74.7126 22.9283 80.6776 16.2575 87.5636 11.3421C94.4445 6.3992 102.288 3.40346 109.92 2.2784C117.562 1.08602 124.978 1.75004 131.451 3.45956C137.951 5.15684 143.538 7.83434 148.192 10.6047C152.846 13.4005 156.596 16.3014 159.52 18.8585C162.447 21.4167 164.572 23.6127 165.974 25.1458C167.378 26.685 168.058 27.5622 168.058 27.5622Z" fill="#45454D"/>
<path d="M141.227 92.5813C141.227 92.5813 141.488 92.8863 141.946 93.4208C142.404 93.943 143.065 94.6672 143.88 95.4577C144.71 96.2329 145.699 97.0765 146.831 97.7344C147.397 98.0618 147.992 98.3566 148.615 98.5504L149.081 98.7064L149.56 98.8023L150.038 98.9053L150.528 98.9318L151.017 98.9767L151.481 98.941L152.062 98.9012C152.18 98.8615 152.299 98.8278 152.419 98.7992C152.904 98.7156 153.452 98.4106 153.907 98.1087C154.341 97.7425 154.762 97.3304 155.086 96.8357C155.258 96.596 155.418 96.3523 155.55 96.0932C155.703 95.8463 155.832 95.5924 155.942 95.3374C156.172 94.8355 156.365 94.3469 156.521 93.9043C156.672 93.4616 156.808 93.0638 156.903 92.7323C157.1 92.0683 157.203 91.6694 157.203 91.6694C157.203 91.6694 157.341 92.0581 157.447 92.768C157.5 93.1229 157.558 93.5585 157.558 94.0624C157.571 94.5673 157.563 95.1456 157.454 95.7729C157.369 96.4043 157.21 97.0969 156.906 97.8068C156.622 98.5228 156.155 99.245 155.537 99.91C154.855 100.531 154.102 101.097 153.072 101.375L152.305 101.584L151.719 101.646L151.427 101.674L151.28 101.688L151.206 101.695L151.17 101.698L151.01 101.704L150.322 101.662L149.635 101.601L148.964 101.449C148.51 101.368 148.086 101.207 147.674 101.031C147.248 100.883 146.866 100.664 146.496 100.441C146.11 100.239 145.781 99.9784 145.453 99.7264C144.157 98.7044 143.253 97.5008 142.641 96.4165C142.013 95.3394 141.668 94.3653 141.468 93.6799C141.27 92.9903 141.227 92.5813 141.227 92.5813Z" fill="#39393F"/>
<path d="M174.637 91.6684C174.637 91.6684 174.856 91.9662 175.239 92.4874C175.62 93.0005 176.169 93.7175 176.844 94.5193C177.187 94.9171 177.574 95.323 177.98 95.7371C178.396 96.1411 178.844 96.5389 179.324 96.8959C179.81 97.2386 180.316 97.564 180.853 97.77L181.252 97.9342L181.665 98.0321C181.934 98.127 182.216 98.1352 182.496 98.1535L182.705 98.177L182.757 98.1831C182.788 98.1821 182.512 98.1964 182.634 98.1902L182.642 98.1892L182.658 98.1872L182.692 98.1841L182.826 98.1719L183.365 98.1219C183.58 98.1168 183.656 98.0638 183.739 98.0321C183.829 97.9995 183.921 97.976 184.019 97.9577C184.439 97.7272 184.886 97.4895 185.227 97.056C185.601 96.6715 185.892 96.1696 186.161 95.6831C186.418 95.1843 186.639 94.6774 186.828 94.1929C187.184 93.2177 187.436 92.3487 187.608 91.7347C187.777 91.1104 187.874 90.7534 187.874 90.7534C187.874 90.7534 187.996 91.1114 188.104 91.7581C188.209 92.4048 188.32 93.3442 188.228 94.4907C188.181 95.0639 188.099 95.6933 187.913 96.3553C187.712 97.0121 187.462 97.7231 186.985 98.3963C186.56 99.0929 185.851 99.7039 185.029 100.153C184.791 100.248 184.544 100.336 184.293 100.418C184.038 100.505 183.775 100.576 183.626 100.577L183.088 100.637L182.954 100.653L182.92 100.657L182.754 100.667L182.671 100.662L182.341 100.637C181.899 100.602 181.459 100.56 181.042 100.419C180.831 100.361 180.62 100.303 180.416 100.231L179.838 99.9589C179.069 99.5978 178.434 99.0827 177.882 98.5625C177.337 98.0321 176.898 97.463 176.524 96.9091C176.159 96.3491 175.872 95.7932 175.635 95.2751C174.704 93.1902 174.637 91.6684 174.637 91.6684Z" fill="#39393F"/>
<path d="M173.518 88.0166L174.577 93.4705C174.927 95.2831 175.288 97.0885 175.67 98.8847C175.874 99.7803 176.061 100.677 176.282 101.564C176.382 102.011 176.504 102.451 176.625 102.89C176.752 103.328 176.844 103.777 176.986 104.206L177.384 105.506L177.844 106.773L178.37 107.996C178.565 108.388 178.798 108.746 179.009 109.128L179.328 109.705L178.834 109.971C177.512 110.683 176.189 111.393 174.848 112.072C174.183 112.421 173.498 112.736 172.823 113.07C172.149 113.402 171.47 113.729 170.779 114.034C171.382 113.579 171.996 113.144 172.615 112.716C173.234 112.289 173.842 111.843 174.471 111.432C175.716 110.589 176.98 109.779 178.244 108.969L178.068 109.812C177.806 109.399 177.515 108.991 177.278 108.567C177.067 108.136 176.841 107.707 176.641 107.27C176.281 106.388 175.96 105.495 175.69 104.595C175.408 103.696 175.181 102.785 174.977 101.872C174.768 100.96 174.578 100.046 174.429 99.1254C174.281 98.2054 174.122 97.2874 174.018 96.3622C173.908 95.4381 173.796 94.515 173.725 93.5889C173.65 92.6627 173.585 91.7355 173.559 90.8053C173.528 89.875 173.49 88.9479 173.518 88.0166Z" fill="#CC9999"/>
<path d="M155.117 121.024C155.117 121.024 156.193 121.593 157.805 122.327C158.62 122.675 159.56 123.086 160.595 123.425C160.852 123.511 161.114 123.597 161.378 123.686C161.648 123.753 161.92 123.823 162.191 123.903C162.729 124.085 163.301 124.136 163.857 124.259C164.417 124.327 164.981 124.413 165.534 124.425C166.083 124.385 166.641 124.482 167.156 124.366C167.675 124.289 168.196 124.268 168.655 124.103C169.119 123.963 169.59 123.892 169.97 123.688C170.373 123.518 170.742 123.362 171.069 123.224C171.376 123.038 171.644 122.877 171.866 122.745C172.329 122.485 172.593 122.336 172.593 122.336C172.593 122.336 172.401 122.563 172.038 122.956C171.85 123.151 171.624 123.387 171.363 123.658C171.067 123.885 170.716 124.128 170.325 124.389C169.951 124.686 169.472 124.859 168.972 125.073C168.48 125.319 167.918 125.435 167.335 125.557C166.755 125.717 166.139 125.705 165.516 125.744C164.895 125.747 164.267 125.673 163.642 125.609C163.035 125.462 162.407 125.38 161.831 125.172C161.241 125.004 160.682 124.782 160.156 124.543C159.615 124.334 159.136 124.043 158.672 123.796C158.211 123.541 157.799 123.261 157.419 123.006C155.913 121.958 155.117 121.024 155.117 121.024Z" fill="#CC9999"/>
<path d="M157.545 125.443C157.545 125.443 158.328 125.857 159.487 126.343C159.78 126.458 160.092 126.587 160.426 126.703C160.755 126.836 161.118 126.921 161.477 127.044C161.84 127.153 162.227 127.223 162.608 127.313C162.997 127.369 163.386 127.466 163.782 127.465L164.373 127.514L164.958 127.498C165.349 127.509 165.726 127.448 166.098 127.403C166.473 127.376 166.817 127.255 167.16 127.19C167.506 127.126 167.814 127.006 168.109 126.906C168.396 126.792 168.691 126.74 168.918 126.62C169.156 126.515 169.364 126.425 169.534 126.35C169.885 126.204 170.098 126.128 170.098 126.128C170.098 126.128 169.958 126.294 169.691 126.573C169.556 126.71 169.392 126.882 169.192 127.067C169.003 127.268 168.735 127.418 168.459 127.611C168.179 127.801 167.876 128.018 167.508 128.151C167.147 128.296 166.778 128.51 166.352 128.582C165.932 128.676 165.5 128.818 165.043 128.824L164.356 128.872L163.667 128.829C163.204 128.808 162.759 128.685 162.316 128.601C161.881 128.492 161.466 128.333 161.073 128.176C160.292 127.842 159.621 127.427 159.093 127.018C158.024 126.207 157.545 125.443 157.545 125.443Z" fill="#CC9999"/>
<path d="M135.293 72.9542C135.293 72.9542 135.568 72.5371 136.178 71.9302C136.482 71.6262 136.861 71.2641 137.331 70.8949C137.801 70.5317 138.336 70.1023 138.968 69.727C139.587 69.319 140.3 68.9609 141.065 68.5876C141.838 68.2429 142.676 67.9063 143.565 67.6349C144.461 67.384 145.392 67.1117 146.369 66.9944C146.856 66.9301 147.343 66.824 147.841 66.7945L149.338 66.7302C150.339 66.6721 151.339 66.8098 152.318 66.8954C152.809 66.922 153.287 67.0393 153.757 67.1433C154.227 67.2473 154.692 67.3453 155.143 67.4626C156.048 67.6839 156.877 68.0644 157.668 68.3612C158.465 68.6458 159.148 69.0956 159.787 69.4536C160.416 69.8412 161.002 70.1554 161.455 70.5613C161.926 70.9275 162.313 71.2825 162.632 71.565C163.266 72.1352 163.593 72.4963 163.593 72.4963C163.593 72.4963 163.086 72.4453 162.263 72.2933C161.853 72.2147 161.354 72.1311 160.81 71.9944C160.273 71.8404 159.615 71.8159 158.952 71.6823C158.277 71.5823 157.581 71.3845 156.812 71.3335C156.05 71.2621 155.274 71.0968 154.459 71.0417C153.64 71.0101 152.814 70.8796 151.966 70.8653C151.117 70.8836 150.264 70.7592 149.405 70.8367L148.118 70.8561C147.691 70.8857 147.266 70.9163 146.843 70.9459C145.993 70.9785 145.166 71.107 144.35 71.1825C143.54 71.2865 142.75 71.4059 141.997 71.5242C141.251 71.665 140.524 71.77 139.865 71.921C138.523 72.1678 137.397 72.4473 136.585 72.635C135.762 72.839 135.293 72.9542 135.293 72.9542Z" fill="#39393F"/>
<path d="M175.23 75.0087C175.23 75.0087 175.349 74.6803 175.668 74.1876C175.974 73.6807 176.489 73.031 177.218 72.3476C177.599 72.0344 178.005 71.6662 178.497 71.3663C178.978 71.0501 179.511 70.7451 180.109 70.5054C180.684 70.2219 181.353 70.0668 182.018 69.8924C182.706 69.7823 183.415 69.6701 184.143 69.6996L185.234 69.7812C185.596 69.8006 185.949 69.9393 186.299 70.0199C187.012 70.1648 187.654 70.4922 188.251 70.8247C188.874 71.1103 189.341 71.5877 189.801 71.9804C190.275 72.3639 190.592 72.8423 190.883 73.2666C191.157 73.7062 191.445 74.0632 191.57 74.4702C191.723 74.8557 191.825 75.2056 191.909 75.4841C192.076 76.0451 192.119 76.3786 192.119 76.3786C192.119 76.3786 191.778 76.248 191.274 75.9981C191.024 75.8717 190.719 75.7278 190.405 75.5483C190.107 75.3474 189.689 75.2403 189.314 75.0567C188.928 74.8863 188.548 74.6691 188.101 74.564C187.668 74.4396 187.267 74.2254 186.805 74.1683C186.579 74.1275 186.362 74.0652 186.142 74.0051C185.923 73.9459 185.681 73.9602 185.457 73.9143C185.007 73.8266 184.534 73.8184 184.06 73.8051C183.826 73.7654 183.581 73.7949 183.339 73.8082C183.098 73.8317 182.854 73.8031 182.609 73.8266C182.119 73.9051 181.622 73.8929 181.132 73.9898C180.64 74.0469 180.153 74.1254 179.681 74.2101C179.202 74.2713 178.755 74.3896 178.314 74.4477C176.593 74.7894 175.23 75.0087 175.23 75.0087Z" fill="#39393F"/>
<path d="M67.7426 208.512C67.7426 208.512 66.3737 197.102 72.3071 189.799C78.2404 182.496 86.4565 172.455 94.6716 173.824C102.887 175.193 109.734 197.102 139.401 194.363C169.068 191.624 177.283 176.106 177.283 176.106C177.283 176.106 199.192 182.496 201.474 198.014C201.474 198.014 205.125 213.077 216.992 223.118C228.859 233.159 223.838 261.457 220.187 266.021C220.187 266.021 259.187 295.308 272.424 324.976C285.66 354.644 282.909 391.3 277.524 427.996C272.592 461.608 276.504 482 276.504 482H79.6439C79.6439 482 61.8082 411.62 95.1275 342.244C128.447 272.867 60.4404 241.831 67.7426 208.512Z" fill="#FC7FB2"/>
<path d="M272.425 324.976C269.072 317.461 264.063 309.972 258.456 302.975C253.657 304.392 248.713 305.446 243.614 306.036C220.024 308.764 196.818 302.379 175.32 293.091C153.792 283.791 133.613 270.181 116.899 253.723C102.04 239.091 88.8249 221.46 83.3843 201.07C78.7912 198.865 74.1859 196.683 69.5622 194.541C66.8694 201.203 67.7426 208.514 67.7426 208.514C60.4404 241.833 128.447 272.869 95.1275 342.245C61.8082 411.62 79.6449 482 79.6449 482H276.505C276.505 482 272.593 461.608 277.525 427.996C282.909 391.301 285.661 354.644 272.425 324.976Z" fill="#F475A0"/>
<path d="M77.3809 248.337L123.035 219.389C123.035 219.389 149.737 281.691 160.635 304.882C164.887 313.928 223.286 363.581 237.145 370.708C251.006 377.835 275.357 397.687 242.622 379.346C242.622 379.346 284.613 411.194 240.618 385.46C240.618 385.46 283.777 415.876 235.682 388.59C235.682 388.59 267.128 413.63 230.096 391.785C230.096 391.785 161.125 361.314 133.711 337.177C106.297 313.04 77.3809 248.337 77.3809 248.337Z" fill="#FFD5D5"/>
<path d="M225.204 365.701C225.204 365.701 268.973 362.333 232.864 371.072C196.755 379.81 225.204 365.701 225.204 365.701Z" fill="#FFD5D5"/>
<path d="M129.806 235.113C125.753 225.73 123.035 219.389 123.035 219.389L77.3809 248.337C77.3809 248.337 79.5994 253.298 83.3836 260.979C98.9447 252.518 114.308 243.694 129.806 235.113Z" fill="#EAC5C5"/>
<path d="M131.187 226.541L75.732 254.611C75.732 254.611 48.347 202.579 82.5782 177.932C105.486 161.438 131.187 226.541 131.187 226.541Z" fill="#FC7FB2"/>
<path d="M227.185 271.149C227.185 271.149 228.02 268.841 245.234 276.839C249.462 278.804 255.492 284.641 255.278 288.176C254.847 295.303 245.227 311.609 243.202 310.438C240.551 308.906 249.58 289.777 249.58 289.777C249.58 289.777 236.764 308.893 233.347 308.686C229.93 308.478 246.453 284.786 246.453 284.786C246.453 284.786 231.151 299.636 228.459 298.787C225.767 297.939 240.509 280.998 240.509 280.998C240.509 280.998 223.8 296.449 224.048 292.348C224.296 288.248 234.961 277.751 234.961 277.751L227.185 271.149Z" fill="#FFD5D5"/>
<path d="M22.1875 385.836C22.1875 385.836 32.3875 434.684 67.0675 482" stroke="#009E9B" stroke-miterlimit="10"/>
<path d="M27.3951 402.798C27.3951 402.798 41.6996 392.081 25.5867 372.214C25.5867 372.214 18.4477 377.337 20.4877 386.517C20.4877 386.517 11.6473 376.997 4.65625 381.695C4.65625 381.695 6.54631 402.156 27.3951 402.798Z" fill="#FC7FB2"/>
<path d="M36.4355 427.405C36.4355 427.405 37.1363 398.48 44.3171 401.661C51.4979 404.841 36.4355 427.405 36.4355 427.405Z" fill="#009E9B"/>
<path d="M50.128 454.291C50.128 454.291 44.5853 425.894 52.2822 427.454C59.9792 429.013 50.128 454.291 50.128 454.291Z" fill="#009E9B"/>
<path d="M63.8975 477.751C63.8975 477.751 58.3549 449.354 66.0518 450.914C73.7487 452.473 63.8975 477.751 63.8975 477.751Z" fill="#009E9B"/>
<path d="M33.2586 418.436C33.2586 418.436 14.562 402.185 12.8433 409.625C11.1236 417.064 33.2586 418.436 33.2586 418.436Z" fill="#009E9B"/>
<path d="M41.9285 439.856C41.9285 439.856 23.2319 423.605 21.5132 431.045C19.7935 438.484 41.9285 439.856 41.9285 439.856Z" fill="#009E9B"/>
<path d="M59.2683 470.966C59.2683 470.966 40.5717 454.715 38.853 462.155C37.1343 469.594 59.2683 470.966 59.2683 470.966Z" fill="#009E9B"/>
<path d="M143.118 417.267C143.118 417.267 161.125 457.292 140.389 486.548" stroke="#009E9B" stroke-miterlimit="10"/>
<path d="M148.542 431.317C148.542 431.317 146.628 418.083 158.46 414.227C158.46 414.227 159.285 426.582 148.542 431.317Z" fill="#00B7AE"/>
<path d="M147.404 432.157C147.404 432.157 135.855 434.893 132.873 423.516C132.873 423.516 143.626 421.909 147.404 432.157Z" fill="#00B7AE"/>
<path d="M150.344 444.764C150.344 444.764 152.049 431.501 164.482 430.961C164.482 430.961 161.963 443.085 150.344 444.764Z" fill="#00B7AE"/>
<path d="M149.022 445.269C149.022 445.269 137.161 444.805 137.342 433.046C137.342 433.046 148.132 434.381 149.022 445.269Z" fill="#00B7AE"/>
<path d="M150.383 459.064C150.383 459.064 152.088 445.801 164.521 445.262C164.521 445.262 162.002 457.385 150.383 459.064Z" fill="#00B7AE"/>
<path d="M149.061 459.569C149.061 459.569 137.2 459.106 137.381 447.347C137.381 447.347 148.172 448.683 149.061 459.569Z" fill="#00B7AE"/>
<path d="M147.648 472.946C147.648 472.946 149.951 461.045 161.23 461.267C161.23 461.267 158.255 472.092 147.648 472.946Z" fill="#00B7AE"/>
<path d="M146.422 473.328C146.422 473.328 135.718 472.23 136.554 461.602C136.554 461.602 146.24 463.427 146.422 473.328Z" fill="#00B7AE"/>
<path d="M144.576 420.124C144.576 420.124 154.68 410.725 154.988 403.771C155.307 396.566 147.813 412.254 147.813 412.254C147.813 412.254 155.865 392.401 152.104 390.739C148.344 389.076 145.014 412.952 145.014 412.952C145.014 412.952 146.681 392.836 142.09 391.567C137.498 390.297 142.434 413.783 142.434 413.783C142.434 413.783 136.097 398.081 133.779 398.474C131.461 398.867 141.908 416.144 141.908 416.144C141.908 416.144 134.739 406.783 133.032 409.625C131.327 412.468 144.576 420.124 144.576 420.124Z" fill="#FFA9CC"/>
<path d="M72.4121 439.724C72.4121 439.724 87.908 460.142 84.4583 482" stroke="#009E9B" stroke-width="0.7472" stroke-miterlimit="10"/>
<path d="M78.7183 449.046C78.7183 449.046 75.1034 439.73 83.0727 434.938C83.0727 434.938 85.7461 443.796 78.7183 449.046Z" fill="#00B7AE"/>
<path d="M78.0299 449.848C78.0299 449.848 70.079 453.777 66 445.994C66 445.994 73.5592 443.019 78.0299 449.848Z" fill="#00B7AE"/>
<path d="M82.2857 458.533C82.2857 458.533 81.3025 448.589 90.2652 446.111C90.2652 446.111 90.4641 455.362 82.2857 458.533Z" fill="#00B7AE"/>
<path d="M81.4065 459.123C81.4065 459.123 72.6927 460.776 70.8516 452.183C70.8516 452.183 78.932 451.346 81.4065 459.123Z" fill="#00B7AE"/>
<path d="M84.7135 468.94C84.7135 468.94 83.7302 458.996 92.6929 456.517C92.6929 456.517 92.8918 465.769 84.7135 468.94Z" fill="#00B7AE"/>
<path d="M83.8362 469.529C83.8362 469.529 75.1224 471.182 73.2812 462.589C73.2812 462.589 81.3617 461.752 83.8362 469.529Z" fill="#00B7AE"/>
<path d="M85.0485 479.507C85.0485 479.507 84.7283 470.455 92.978 468.725C92.978 468.725 92.6292 477.106 85.0485 479.507Z" fill="#00B7AE"/>
<path d="M84.2228 479.991C84.2228 479.991 76.2454 480.987 75.0703 473.108C75.0703 473.108 82.4286 472.812 84.2228 479.991Z" fill="#00B7AE"/>
<path d="M73.9515 441.56C73.9515 441.56 79.7319 433.02 78.7894 427.905C77.8133 422.605 74.9889 435.285 74.9889 435.285C74.9889 435.285 77.5215 419.479 74.5044 418.898C71.4872 418.319 73.0682 436.263 73.0682 436.263C73.0682 436.263 70.9068 421.336 67.3511 421.182C63.7954 421.028 71.3291 437.301 71.3291 437.301C71.3291 437.301 64.081 426.932 62.4592 427.606C60.8374 428.281 71.3434 439.109 71.3434 439.109C71.3434 439.109 64.5522 433.496 63.7872 435.852C63.0202 438.208 73.9515 441.56 73.9515 441.56Z" fill="#FFA9CC"/>
<path d="M26.9473 344.356C26.9473 344.356 105.148 365.324 107.188 482C107.188 482 132.348 409.636 95.6279 351.836" stroke="#009E9B" stroke-miterlimit="10"/>
<path d="M47.883 354.418C47.883 354.418 55.433 335.767 28.3429 325.996C28.3429 325.996 25.5878 336.536 33.0675 344.016C33.0675 344.016 18.7875 338.916 13.6875 347.313C13.6875 347.313 27.8981 362.857 47.883 354.418Z" fill="#FC7FB2"/>
<path d="M67.2363 370.366C67.2363 370.366 50.4063 343.336 58.0563 341.296C65.7063 339.256 67.2363 370.366 67.2363 370.366Z" fill="#009E9B"/>
<path d="M80.0745 387.029C80.0745 387.029 76.3127 358.06 83.9209 360.031C91.5291 362.003 80.0745 387.029 80.0745 387.029Z" fill="#009E9B"/>
<path d="M97.4143 423.239C97.4143 423.239 93.6526 394.27 101.261 396.241C108.869 398.213 97.4143 423.239 97.4143 423.239Z" fill="#009E9B"/>
<path d="M73.3556 378.016C73.3556 378.016 49.3856 359.656 47.8556 368.836C46.3256 378.016 73.3556 378.016 73.3556 378.016Z" fill="#009E9B"/>
<path d="M90.1856 403.516C90.1856 403.516 66.2156 385.156 64.6856 394.336C63.1556 403.516 90.1856 403.516 90.1856 403.516Z" fill="#009E9B"/>
<path d="M104.29 447.219C104.29 447.219 86.5801 422.765 82.4858 431.123C78.3915 439.48 104.29 447.219 104.29 447.219Z" fill="#009E9B"/>
<path d="M101.762 363.316C101.762 363.316 108.27 351.694 106.498 345.214C104.662 338.499 102.412 355.127 102.412 355.127C102.412 355.127 103.945 334.508 99.9986 334.091C96.0523 333.673 100.047 356.596 100.047 356.596C100.047 356.596 95.6351 337.62 91.041 337.811C86.4469 338 97.9209 358.122 97.9209 358.122C97.9209 358.122 87.4587 345.567 85.4453 346.613C83.4318 347.659 98.1351 360.447 98.1351 360.447C98.1351 360.447 88.7817 353.965 88.0534 357.08C87.3261 360.194 101.762 363.316 101.762 363.316Z" fill="#FFA9CC"/>
<path d="M111.806 387.125C111.806 387.125 110.042 377.29 118.782 374.113C118.782 374.113 119.709 383.318 111.806 387.125Z" fill="#00B7AE"/>
<path d="M110.977 387.782C110.977 387.782 102.421 390.115 99.9082 381.694C99.9082 381.694 107.898 380.222 110.977 387.782Z" fill="#00B7AE"/>
<path d="M114.85 402.217C114.85 402.217 113.661 392.295 122.571 389.632C122.571 389.632 122.962 398.877 114.85 402.217Z" fill="#00B7AE"/>
<path d="M113.985 402.824C113.985 402.824 105.308 404.656 103.289 396.103C103.289 396.103 111.35 395.098 113.985 402.824Z" fill="#00B7AE"/>
<path d="M116.311 416.263C116.311 416.263 116.543 404.451 127.412 402.791C127.412 402.791 126.356 413.68 116.311 416.263Z" fill="#00B7AE"/>
<path d="M115.198 416.832C115.198 416.832 104.737 417.557 103.773 407.211C103.773 407.211 113.378 407.354 115.198 416.832Z" fill="#00B7AE"/>
<path d="M116.311 434.963C116.311 434.963 116.543 423.15 127.412 421.491C127.412 421.491 126.356 432.38 116.311 434.963Z" fill="#00B7AE"/>
<path d="M115.198 435.532C115.198 435.532 104.737 436.257 103.773 425.911C103.773 425.911 113.378 426.054 115.198 435.532Z" fill="#00B7AE"/>
<path d="M114.641 449.153C114.641 449.153 118.481 437.98 129.335 439.728C129.335 439.728 124.995 449.771 114.641 449.153Z" fill="#00B7AE"/>
<path d="M113.408 449.354C113.408 449.354 103.227 446.84 105.48 436.696C105.48 436.696 114.578 439.774 113.408 449.354Z" fill="#00B7AE"/>
<path d="M228.164 483.673C228.164 483.673 234.803 430.706 286.183 406.104" stroke="#009E9B" stroke-miterlimit="10"/>
<path d="M281.752 408.56C281.752 408.56 284.51 394.962 290.548 391.282C296.805 387.47 286.975 401.823 286.975 401.823C286.975 401.823 300.213 384.933 303.795 387.467C307.377 390 287.913 404.657 287.913 404.657C287.913 404.657 304.947 393.321 308.641 396.786C312.336 400.252 288.61 407.36 288.61 407.36C288.61 407.36 306.167 405.311 307.108 407.567C308.05 409.822 286.795 408.983 286.795 408.983C286.795 408.983 299.153 410.782 297.566 413.693C295.979 416.604 281.752 408.56 281.752 408.56Z" fill="#FFA9CC"/>
<path d="M265.059 419.451C265.059 419.451 275.572 411.186 284.817 419.516C284.817 419.516 274.521 426.397 265.059 419.451Z" fill="#00B7AE"/>
<path d="M263.761 418.884C263.761 418.884 255.627 410.241 263.998 401.98C263.998 401.98 270.758 410.495 263.761 418.884Z" fill="#00B7AE"/>
<path d="M253.121 431.774C253.121 431.774 264.002 424.002 272.856 432.746C272.856 432.746 262.256 439.148 253.121 431.774Z" fill="#00B7AE"/>
<path d="M251.853 431.149C251.853 431.149 244.124 422.141 252.865 414.273C252.865 414.273 259.227 423.091 251.853 431.149Z" fill="#00B7AE"/>
<path d="M240.547 448.316C240.547 448.316 249.336 438.237 259.972 444.698C259.972 444.698 251.14 453.377 240.547 448.316Z" fill="#00B7AE"/>
<path d="M239.168 448.001C239.168 448.001 229.566 441.025 236.251 431.348C236.251 431.348 244.479 438.455 239.168 448.001Z" fill="#00B7AE"/>
<path d="M232.689 467.693C232.689 467.693 240.343 456.727 251.611 462.004C251.611 462.004 243.765 471.584 232.689 467.693Z" fill="#00B7AE"/>
<path d="M231.284 467.528C231.284 467.528 220.986 461.626 226.59 451.286C226.59 451.286 235.535 457.466 231.284 467.528Z" fill="#00B7AE"/>
<path d="M328.186 376.316C328.186 376.316 316.627 446.923 276.506 482C276.506 482 339.066 465.397 351.986 404.197" stroke="#009E9B" stroke-miterlimit="10"/>
<path d="M323.487 400.375C323.487 400.375 300.584 389.593 315.59 358.098C315.59 358.098 324.128 361.604 326.478 368.7C326.478 368.7 333.423 359.715 347.008 365.401C347.008 365.401 348.26 391.457 323.487 400.375Z" fill="#FC7FB2"/>
<path d="M313.449 424.889C313.449 424.889 328.871 401.942 332.879 408.665C336.889 415.388 313.449 424.889 313.449 424.889Z" fill="#009E9B"/>
<path d="M300.293 453.721C300.293 453.721 319.453 433.788 322.237 441.103C325.023 448.418 300.293 453.721 300.293 453.721Z" fill="#009E9B"/>
<path d="M309.52 435.731C309.52 435.731 315.746 411.754 308.318 413.527C300.892 415.302 309.52 435.731 309.52 435.731Z" fill="#009E9B"/>
<path d="M293.37 463.273C293.37 463.273 298.17 438.97 290.861 441.18C283.553 443.388 293.37 463.273 293.37 463.273Z" fill="#009E9B"/>
<path d="M346.76 421.018C346.76 421.018 359.713 416.045 362.341 409.481C365.064 402.679 352.539 414.751 352.539 414.751C352.539 414.751 367.001 398.897 363.91 395.784C360.818 392.671 349.589 414.296 349.589 414.296C349.589 414.296 357.945 395.619 353.915 392.55C349.885 389.481 346.807 414.057 346.807 414.057C346.807 414.057 345.918 396.404 343.537 395.849C341.157 395.294 345.507 416.116 345.507 416.116C345.507 416.116 341.686 404.227 339.078 406.274C336.47 408.321 346.76 421.018 346.76 421.018Z" fill="#FFA9CC"/>
<path d="M335.174 442.772C335.174 442.772 343.152 432.041 354.259 437.655C354.259 437.655 346.128 446.995 335.174 442.772Z" fill="#00B7AE"/>
<path d="M333.775 442.566C333.775 442.566 323.659 436.358 329.571 426.191C329.571 426.191 338.328 432.636 333.775 442.566Z" fill="#00B7AE"/>
<path d="M312.377 464.916C312.377 464.916 322.736 456.46 332.133 464.617C332.133 464.617 321.967 471.688 312.377 464.916Z" fill="#00B7AE"/>
<path d="M311.071 464.375C311.071 464.375 302.778 455.882 310.997 447.469C310.997 447.469 317.912 455.859 311.071 464.375Z" fill="#00B7AE"/>
</g>
<defs>
<filter id="filter0_d_89_6" x="0.65625" y="0.639648" width="367.688" height="494.198" filterUnits="userSpaceOnUse" color-interpolation-filters="sRGB">
<feFlood flood-opacity="0" result="BackgroundImageFix"/>
<feColorMatrix in="SourceAlpha" type="matrix" values="0 0 0 0 0 0 0 0 0 0 0 0 0 0 0 0 0 0 127 0" result="hardAlpha"/>
<feOffset dy="4"/>
<feGaussianBlur stdDeviation="2"/>
<feComposite in2="hardAlpha" operator="out"/>
<feColorMatrix type="matrix" values="0 0 0 0 0 0 0 0 0 0 0 0 0 0 0 0 0 0 0.25 0"/>
<feBlend mode="normal" in2="BackgroundImageFix" result="effect1_dropShadow_89_6"/>
<feBlend mode="normal" in="SourceGraphic" in2="effect1_dropShadow_89_6" result="shape"/>
</filter>
</defs>
</svg>
