<svg width="277" height="507" viewBox="0 0 277 507" fill="none" xmlns="http://www.w3.org/2000/svg">
<g opacity="0.2">
<path d="M7.35197 27.9996C7.35197 27.9996 46.1769 -2.68123 74.4647 23.9089C102.751 50.4991 78.347 83.2246 98.3149 123.621C118.283 164.017 77.7927 220.776 25.6559 201.856C-22.3288 184.444 -15.3885 57.6575 7.35197 27.9996Z" fill="#39393F"/>
<path d="M4.57959 31.7383C4.57959 31.7383 5.56522 30.9467 7.52081 29.6056C9.48121 28.2766 12.3947 26.3608 16.33 24.3136C20.2568 22.2628 25.1897 20.0265 31.142 18.2444C37.0835 16.5298 44.1431 15.2442 51.8678 16.0202C55.7151 16.3937 59.6926 17.3335 63.5712 18.924C67.451 20.5097 71.208 22.7701 74.6408 25.6005L75.9385 26.6608L77.1687 27.8139C77.9676 28.5694 78.7809 29.302 79.5544 30.1852C80.3316 31.0383 81.157 31.8709 81.8498 32.795C82.5704 33.7035 83.3234 34.5952 83.9584 35.5868C86.6611 39.4317 88.7227 43.861 90.0854 48.5433C92.7447 57.9887 92.6338 68.0594 92.5495 77.9506C92.4374 87.8695 92.5965 97.8956 94.6714 107.602C95.6726 112.451 97.1161 117.2 99.0006 121.752C99.4778 122.888 99.932 124.033 100.489 125.13L101.286 126.793L102.107 128.539C102.618 129.691 103.173 130.781 103.644 131.978C104.085 133.209 104.526 134.44 104.966 135.667C108.022 145.513 107.781 155.952 105.361 165.322C104.134 170.017 102.337 174.463 100.147 178.566C99.0922 180.643 97.821 182.565 96.6016 184.48C95.269 186.32 93.9773 188.154 92.5134 189.814C89.6613 193.188 86.5767 196.215 83.2885 198.753C81.704 200.099 79.9629 201.178 78.3303 202.333C77.4796 202.861 76.6169 203.351 75.7746 203.855C75.3517 204.104 74.9312 204.351 74.5131 204.598C74.0853 204.828 73.6467 205.033 73.2178 205.25C66.369 208.772 59.4661 210.64 53.2896 211.329C47.0988 212.042 41.6598 211.61 37.2787 210.969C36.1846 210.787 35.1484 210.616 34.1736 210.453C33.2061 210.254 32.3144 209.995 31.4782 209.794C30.6444 209.583 29.8732 209.388 29.166 209.208C28.4635 209.016 27.843 208.777 27.2779 208.597C25.0319 207.846 23.8342 207.444 23.8342 207.444C23.8342 207.444 25.05 207.785 27.3285 208.426C27.8996 208.577 28.5274 208.784 29.2359 208.942C29.948 209.085 30.7251 209.242 31.565 209.411C32.4048 209.571 33.3012 209.778 34.2676 209.936C35.2388 210.061 36.2714 210.194 37.363 210.334C41.7212 210.809 47.0964 211.035 53.1282 210.113C59.148 209.204 65.7798 207.136 72.3514 203.61C72.7623 203.392 73.1768 203.173 73.5925 202.951C73.9925 202.703 74.395 202.454 74.7986 202.202C75.6035 201.696 76.4289 201.204 77.2398 200.675C78.7954 199.518 80.4545 198.442 81.9571 197.105C85.079 194.583 87.9889 191.594 90.6614 188.284C92.035 186.655 93.2363 184.861 94.4786 183.066C95.6076 181.199 96.7872 179.331 97.7511 177.318C99.7368 173.333 101.451 169.092 102.553 164.602C104.773 155.65 104.789 145.824 101.932 136.619C101.531 135.508 101.13 134.394 100.727 133.278C100.284 132.156 99.7007 131.015 99.1922 129.881L98.8283 129.092L98.4102 128.231L97.574 126.505C96.9908 125.365 96.5125 124.176 96.0112 122.994C94.0315 118.26 92.5025 113.313 91.4494 108.275C89.3312 98.1751 89.2263 87.8514 89.3733 77.9241C89.4155 72.9514 89.5191 68.0449 89.2962 63.2481C89.0649 58.4562 88.4962 53.7642 87.3021 49.3265C86.0755 44.9008 84.1729 40.7812 81.7366 37.1014C81.1642 36.1555 80.469 35.3013 79.8099 34.4277C79.1713 33.53 78.4291 32.7565 77.7266 31.9456C77.0542 31.131 76.2409 30.3611 75.4589 29.5887L74.3167 28.467L73.1069 27.4356C66.7245 21.8664 59.0299 18.7083 51.6642 17.8577C44.2793 16.9865 37.3715 17.9577 31.4686 19.4229C25.5584 20.9591 20.5894 22.993 16.6179 24.8859C12.6489 26.7945 9.63182 28.514 7.62081 29.7562C5.60377 30.9949 4.57959 31.7383 4.57959 31.7383Z" fill="#39393F"/>
<path d="M19.2624 167.918C19.2624 167.918 14.9488 190.564 20.3408 194.877C25.7328 199.191 74.7971 208.357 79.6493 222.914C84.5015 237.472 -64.3084 276.292 -71.3174 260.656C-78.3264 245.02 -72.9344 219.141 -45.4369 204.583C-17.9395 190.025 -20.0963 154.98 -21.7133 133.413C-23.3315 111.844 19.2624 167.918 19.2624 167.918Z" fill="#FFD5D5"/>
<path d="M-22.0164 167.967C-17.0328 171.452 -11.4709 174.173 -6.21868 176.144C1.7386 179.131 9.68143 180.415 17.7134 180.94C18.0472 174.304 19.263 167.918 19.263 167.918C19.263 167.918 -23.3309 111.845 -21.7139 133.412C-20.9777 143.209 -20.1415 155.789 -22.0164 167.967Z" fill="#EAC5C5"/>
<path d="M27.35 36.9001C27.35 36.9001 53.7691 41.7523 64.0133 59.0056C74.2575 76.2588 73.3888 93.4711 75.8745 106.453C80.7267 131.793 65.9002 165.356 41.0982 172.367C16.2961 179.376 -28.7245 146.891 -24.9495 119.932C-21.1757 92.9734 -18.4803 30.4297 27.35 36.9001Z" fill="#FFD5D5"/>
<path d="M44.6048 27.1947C44.6048 27.1947 53.4766 36.2087 48.5701 44.4708C48.5701 44.4708 4.70628 49.3001 2.01088 92.9724C-0.684526 136.645 20.3425 162.525 -9.31175 191.64C-38.966 220.754 -36.8092 187.866 -62.6896 218.059C-62.6896 218.059 -82.6383 215.902 -83.1781 180.856C-83.7167 145.809 -68.6202 132.87 -78.3259 98.9018C-88.0315 64.9339 -68.6215 12.0958 -27.6446 1.85163C13.3323 -8.39018 44.6048 27.1947 44.6048 27.1947Z" fill="#45454D"/>
<path d="M1.77932 99.8498C0.964793 100.503 0.185205 101.22 -0.537746 102.039C-5.42851 107.576 -7.54675 115.046 -9.35533 122.049C-14.2003 140.803 -18.085 162.492 -34.2839 175.207C-51.6239 188.816 -68.7482 180.918 -82.4903 166.354C-82.9831 170.786 -83.2614 175.567 -83.1807 180.858C-82.6421 215.904 -62.6923 218.061 -62.6923 218.061C-36.8118 187.867 -38.9686 220.756 -9.31437 191.642C18.747 164.09 1.43712 139.425 1.77932 99.8498Z" fill="#39393F"/>
<path d="M40.0714 42.6322C40.0606 42.6274 40.0136 42.8226 39.8051 43.1479C39.6015 43.4757 39.2328 43.9227 38.6641 44.4107C37.5351 45.4011 35.6445 46.5277 33.2227 47.858C30.8092 49.2039 27.8656 50.8064 24.7111 52.9463C21.5759 55.0995 18.1768 57.7407 15.1031 61.2073C12.0306 64.6594 9.25563 68.8838 7.31209 73.7926C5.33964 78.6834 4.11666 84.1814 3.66481 89.9542C3.20935 95.7282 3.42744 101.78 3.97809 107.906C4.53958 114.041 5.41074 120.268 6.30238 126.508C8.11216 138.976 10.1653 151.55 10.1063 163.583C10.0473 169.581 9.41468 175.455 7.73261 180.792C6.10597 186.137 3.22621 190.809 -0.29697 194.19C-3.80931 197.606 -7.82167 199.725 -11.4485 201.109C-15.0958 202.501 -18.4105 203.238 -21.1445 203.7C-23.882 204.161 -26.0557 204.33 -27.533 204.442C-29.0114 204.531 -29.8006 204.579 -29.8006 204.579C-29.8006 204.579 -29.0174 204.477 -27.5498 204.283C-26.0846 204.079 -23.9435 203.72 -21.2589 203.125C-18.578 202.526 -15.3488 201.624 -11.875 200.083C-8.40245 198.566 -4.72263 196.273 -1.53441 192.961C1.66585 189.66 4.13232 185.214 5.53605 180.133C6.99159 175.059 7.4374 169.411 7.35787 163.587C7.30004 157.751 6.69157 151.707 5.87945 145.58C5.06854 139.451 4.09857 133.223 3.15151 126.971C2.19962 120.719 1.32365 114.432 0.806736 108.18C0.301875 101.929 0.0355934 95.7041 0.646487 89.6783C1.25979 83.6657 2.6129 77.8761 4.88297 72.766C7.13255 67.656 10.1858 63.2412 13.5945 59.7939C16.996 56.3322 20.6156 53.7307 23.9773 51.7812C27.3378 49.816 30.402 48.4062 32.8985 47.2242C35.3915 46.041 37.3483 45.1132 38.5376 44.2468C39.134 43.8215 39.534 43.4178 39.7618 43.1154C39.9943 42.8202 40.0618 42.625 40.0714 42.6322Z" fill="#45454D"/>
<path d="M45.0255 31.8033C45.0255 31.8033 44.1953 30.7888 42.4928 29.0212C40.789 27.2572 38.2141 24.7365 34.6897 21.8206C31.1605 18.9191 26.7011 15.5803 21.1813 12.421C15.6676 9.28579 9.07795 6.29518 1.4966 4.47816C-6.05944 2.63343 -14.6216 2.0876 -23.3874 3.57809C-32.1483 5.01797 -41.0153 8.67128 -48.7377 14.4609C-56.5046 20.2084 -63.0027 28.0283 -68.0224 36.817C-73.0168 45.637 -76.4435 55.5306 -78.0786 65.6904C-79.7029 75.872 -79.5052 86.2608 -76.9978 96.1279C-75.8736 101.221 -75.223 106.481 -75.1953 111.635C-75.1362 116.803 -75.7025 121.912 -76.6942 126.8C-78.6835 136.605 -82.0476 145.53 -84.3237 154.153C-86.636 162.767 -88.0084 171.082 -88.3578 178.842C-88.553 182.733 -88.4409 186.386 -87.9252 189.857C-87.4179 193.318 -86.5215 196.533 -85.2973 199.392C-82.8682 205.139 -79.145 209.358 -75.5507 212.072C-71.9492 214.82 -68.5947 216.22 -66.309 217.05C-63.9979 217.858 -62.6942 218.058 -62.6942 218.058C-62.6942 218.058 -64.0076 217.957 -66.3921 217.315C-68.7634 216.673 -72.236 215.435 -76.0905 212.818C-79.8993 210.219 -84.1478 206.095 -86.8914 200.108C-89.7001 194.195 -91.0194 186.705 -90.8158 178.752C-90.7182 174.78 -90.3833 170.642 -89.7663 166.399C-89.1265 162.159 -88.1939 157.822 -87.0541 153.43C-84.7936 144.64 -81.509 135.697 -79.6643 126.218C-78.7401 121.484 -78.2365 116.607 -78.328 111.671C-78.3907 106.718 -79.0462 101.781 -80.1559 96.8135L-80.5596 94.9374C-80.7041 94.2916 -80.8451 93.6433 -80.9632 92.9915C-81.2211 91.6914 -81.4211 90.3792 -81.5994 89.0635C-81.9524 86.4319 -82.1452 83.7763 -82.2079 81.1158C-82.3308 75.7961 -81.9295 70.4559 -81.0475 65.2037C-79.2799 54.7016 -75.6712 44.5212 -70.4406 35.4325C-65.2426 26.3294 -58.1963 18.4492 -50.0619 12.6427C-41.9335 6.80365 -32.6677 3.26481 -23.6525 1.93578C-14.6252 0.527233 -5.86424 1.31164 1.78217 3.33108C9.45991 5.33606 16.0604 8.49897 21.5585 11.7715C27.0553 15.0742 31.4858 18.501 34.9391 21.5217C38.3972 24.5437 40.9071 27.1379 42.5638 28.9489C44.2218 30.7671 45.0255 31.8033 45.0255 31.8033Z" fill="#45454D"/>
<path d="M13.3304 108.61C13.3304 108.61 13.6389 108.97 14.1799 109.602C14.7209 110.219 15.5017 111.074 16.4644 112.008C17.4452 112.924 18.614 113.92 19.9515 114.697C20.619 115.084 21.3227 115.432 22.0589 115.661L22.6083 115.846L23.1746 115.959L23.7397 116.081L24.3181 116.112L24.8952 116.165L25.4435 116.123L26.1303 116.076C26.2701 116.029 26.4098 115.989 26.552 115.955C27.1243 115.856 27.7726 115.496 28.31 115.139C28.8221 114.707 29.3197 114.22 29.7029 113.636C29.9053 113.353 30.0945 113.065 30.2511 112.759C30.4319 112.467 30.5837 112.167 30.7138 111.866C30.9849 111.273 31.2138 110.696 31.3982 110.173C31.5765 109.65 31.7368 109.18 31.8488 108.788C32.0814 108.004 32.2031 107.533 32.2031 107.533C32.2031 107.533 32.3657 107.992 32.491 108.831C32.5537 109.25 32.6224 109.764 32.6224 110.36C32.6381 110.956 32.6284 111.639 32.4995 112.38C32.3995 113.126 32.2115 113.944 31.8524 114.783C31.5175 115.629 30.9656 116.482 30.2354 117.267C29.4294 118.001 28.5401 118.67 27.3232 118.998L26.4171 119.245L25.7254 119.318L25.3796 119.351L25.2061 119.368L25.1194 119.376L25.076 119.38L24.888 119.387L24.0747 119.337L23.2638 119.265L22.471 119.086C21.9348 118.989 21.4335 118.8 20.9467 118.592C20.4431 118.417 19.9924 118.158 19.5551 117.895C19.0996 117.657 18.7104 117.348 18.3236 117.05C16.7922 115.843 15.7246 114.421 15.0017 113.141C14.2594 111.868 13.8522 110.717 13.616 109.908C13.3823 109.093 13.3304 108.61 13.3304 108.61Z" fill="#39393F"/>
<path d="M52.7979 107.531C52.7979 107.531 53.0569 107.883 53.5087 108.499C53.9594 109.105 54.6076 109.952 55.4053 110.899C55.8101 111.369 56.268 111.849 56.7476 112.338C57.2392 112.815 57.7681 113.285 58.3345 113.707C58.9092 114.111 59.5068 114.496 60.1406 114.739L60.613 114.933L61.0997 115.049C61.4178 115.161 61.7516 115.171 62.0818 115.192L62.3288 115.22L62.3902 115.227C62.4264 115.226 62.101 115.243 62.2444 115.236L62.2541 115.234L62.2733 115.232L62.3131 115.228L62.4722 115.214L63.1083 115.155C63.3626 115.149 63.4517 115.086 63.5505 115.049C63.6566 115.01 63.765 114.983 63.8807 114.961C64.3771 114.689 64.9049 114.408 65.3085 113.896C65.7495 113.441 66.0941 112.849 66.411 112.274C66.7147 111.685 66.9761 111.086 67.199 110.513C67.6195 109.362 67.9172 108.335 68.1208 107.61C68.3208 106.872 68.4353 106.451 68.4353 106.451C68.4353 106.451 68.5787 106.873 68.7064 107.637C68.8305 108.401 68.9618 109.511 68.8534 110.865C68.798 111.542 68.7004 112.286 68.4811 113.068C68.2437 113.844 67.9485 114.684 67.3846 115.479C66.8821 116.302 66.0447 117.024 65.0748 117.554C64.7928 117.666 64.5012 117.771 64.2048 117.867C63.9036 117.97 63.5927 118.054 63.4168 118.055L62.7818 118.126L62.6228 118.144L62.583 118.149L62.3866 118.161L62.289 118.155L61.8986 118.126C61.3769 118.084 60.8575 118.035 60.3647 117.868C60.1153 117.8 59.8659 117.731 59.6249 117.647L58.9417 117.325C58.0332 116.898 57.2838 116.29 56.6319 115.675C55.9873 115.049 55.4692 114.376 55.027 113.722C54.5956 113.061 54.257 112.404 53.9775 111.792C52.8774 109.329 52.7979 107.531 52.7979 107.531Z" fill="#39393F"/>
<path d="M51.4754 103.218L52.7261 109.66C53.1394 111.801 53.566 113.934 54.0178 116.056C54.2588 117.114 54.4793 118.173 54.7408 119.221C54.8589 119.749 55.0022 120.268 55.1456 120.788C55.2962 121.305 55.4047 121.835 55.5722 122.342L56.0421 123.877L56.5855 125.375L57.2072 126.82C57.4374 127.282 57.7121 127.705 57.9615 128.156L58.3387 128.838L57.7555 129.152C56.1939 129.993 54.6311 130.832 53.0467 131.634C52.261 132.047 51.4513 132.419 50.6549 132.813C49.8584 133.206 49.056 133.591 48.2402 133.951C48.9523 133.414 49.6777 132.901 50.4091 132.395C51.1405 131.89 51.8586 131.363 52.6008 130.878C54.072 129.882 55.5649 128.926 57.0578 127.969L56.8506 128.964C56.5409 128.476 56.1975 127.994 55.9168 127.493C55.6674 126.985 55.4011 126.477 55.1649 125.962C54.7396 124.919 54.36 123.865 54.0407 122.801C53.7081 121.74 53.4395 120.664 53.1985 119.585C52.9515 118.508 52.7274 117.428 52.5514 116.34C52.3767 115.254 52.1888 114.169 52.0659 113.076C51.9357 111.985 51.8044 110.894 51.72 109.8C51.6309 108.706 51.555 107.611 51.5236 106.512C51.4875 105.413 51.4429 104.318 51.4754 103.218Z" fill="#CC9999"/>
<path d="M29.7393 142.209C29.7393 142.209 31.0104 142.881 32.9142 143.749C33.8769 144.16 34.9879 144.645 36.2097 145.045C36.5133 145.146 36.823 145.249 37.135 145.354C37.4544 145.433 37.7749 145.515 38.0954 145.61C38.7316 145.825 39.4063 145.885 40.063 146.031C40.7245 146.11 41.3908 146.213 42.0451 146.226C42.6933 146.179 43.3524 146.293 43.9609 146.157C44.5742 146.066 45.1887 146.04 45.7309 145.846C46.2792 145.68 46.8358 145.597 47.2853 145.356C47.7612 145.155 48.1962 144.97 48.583 144.808C48.9457 144.589 49.2625 144.398 49.524 144.241C50.071 143.934 50.3831 143.758 50.3831 143.758C50.3831 143.758 50.1566 144.027 49.7277 144.491C49.5059 144.721 49.2385 145.001 48.93 145.32C48.5806 145.589 48.1661 145.875 47.7046 146.184C47.2624 146.534 46.6961 146.739 46.1057 146.992C45.5249 147.283 44.861 147.42 44.1718 147.563C43.4874 147.753 42.7596 147.738 42.0234 147.785C41.2896 147.788 40.5474 147.701 39.81 147.625C39.093 147.451 38.3508 147.355 37.67 147.109C36.9736 146.91 36.3133 146.648 35.6916 146.366C35.053 146.119 34.4866 145.775 33.9384 145.484C33.3938 145.183 32.907 144.851 32.4588 144.55C30.6791 143.312 29.7393 142.209 29.7393 142.209Z" fill="#CC9999"/>
<path d="M32.6067 147.43C32.6067 147.43 33.5321 147.919 34.9008 148.492C35.2467 148.628 35.6154 148.78 36.0106 148.918C36.3986 149.074 36.8275 149.176 37.2516 149.32C37.6806 149.449 38.1373 149.532 38.5879 149.638C39.047 149.704 39.5072 149.819 39.9748 149.818L40.6724 149.876L41.364 149.856C41.8255 149.87 42.2713 149.797 42.7099 149.744C43.1533 149.713 43.5594 149.57 43.9655 149.492C44.3739 149.418 44.7378 149.276 45.086 149.157C45.4246 149.022 45.774 148.961 46.0415 148.82C46.3223 148.696 46.5681 148.589 46.7693 148.501C47.1838 148.328 47.4356 148.238 47.4356 148.238C47.4356 148.238 47.2706 148.434 46.9549 148.763C46.7958 148.926 46.6018 149.129 46.3656 149.348C46.1415 149.585 45.8258 149.762 45.4993 149.99C45.1692 150.214 44.8113 150.471 44.3763 150.629C43.9498 150.8 43.5136 151.053 43.01 151.137C42.5147 151.248 42.0038 151.415 41.464 151.423L40.6531 151.479L39.8386 151.429C39.2916 151.405 38.7662 151.259 38.2433 151.16C37.7288 151.031 37.2384 150.843 36.7745 150.658C35.8515 150.264 35.0587 149.773 34.4357 149.29C33.173 148.332 32.6067 147.43 32.6067 147.43Z" fill="#CC9999"/>
<path d="M6.3208 85.4247C6.3208 85.4247 6.64612 84.9319 7.36667 84.215C7.72573 83.8559 8.17276 83.4282 8.72823 82.992C9.2837 82.563 9.91507 82.0558 10.6621 81.6123C11.3935 81.1304 12.2357 80.7075 13.1394 80.2665C14.0528 79.8592 15.042 79.4616 16.0927 79.1411C17.1506 78.8446 18.2507 78.5229 19.405 78.3844C19.9797 78.3085 20.5557 78.1831 21.1437 78.1482L22.9125 78.0723C24.0946 78.0036 25.2754 78.1663 26.4321 78.2675C27.0129 78.2988 27.5768 78.4374 28.1322 78.5603C28.6877 78.6832 29.2371 78.7989 29.7697 78.9374C30.8385 79.1989 31.8181 79.6483 32.7519 79.999C33.6941 80.3351 34.5002 80.8665 35.2557 81.2894C35.9979 81.7473 36.6908 82.1184 37.2258 82.598C37.7824 83.0305 38.2391 83.4498 38.6162 83.7836C39.3657 84.4572 39.7513 84.8837 39.7513 84.8837C39.7513 84.8837 39.1524 84.8235 38.18 84.6439C37.6957 84.5511 37.1065 84.4523 36.4642 84.2909C35.8293 84.1089 35.0521 84.08 34.2689 83.9222C33.4712 83.8041 32.6495 83.5703 31.741 83.5101C30.8409 83.4257 29.9239 83.2305 28.9612 83.1655C27.9937 83.1281 27.0177 82.9739 26.0164 82.957C25.0139 82.9787 24.0054 82.8317 22.9909 82.9233L21.4715 82.9462C20.9666 82.9811 20.4641 83.0173 19.9653 83.0522C18.9604 83.0908 17.9832 83.2426 17.0193 83.3318C16.0626 83.4547 15.13 83.5956 14.2407 83.7354C13.3587 83.9017 12.4996 84.0258 11.7212 84.2041C10.1368 84.4957 8.80655 84.8259 7.84743 85.0476C6.87506 85.2886 6.3208 85.4247 6.3208 85.4247Z" fill="#39393F"/>
<path d="M53.4989 87.8516C53.4989 87.8516 53.6387 87.4636 54.0158 86.8816C54.3773 86.2828 54.9858 85.5152 55.8473 84.7079C56.2967 84.338 56.7763 83.903 57.357 83.5488C57.9258 83.1753 58.5559 82.815 59.262 82.5318C59.9416 82.1969 60.7308 82.0137 61.5164 81.8077C62.3297 81.6776 63.1672 81.545 64.0275 81.58L65.3155 81.6763C65.7433 81.6992 66.1602 81.8631 66.5747 81.9583C67.4169 82.1294 68.1748 82.5162 68.8797 82.909C69.6159 83.2464 70.1677 83.8103 70.7111 84.2742C71.2714 84.7272 71.645 85.2923 71.9896 85.7936C72.3125 86.3129 72.6535 86.7346 72.8005 87.2154C72.9812 87.6708 73.1017 88.0841 73.2017 88.4131C73.3981 89.0758 73.4487 89.4698 73.4487 89.4698C73.4487 89.4698 73.0463 89.3155 72.4511 89.0203C72.1558 88.8709 71.7956 88.701 71.4245 88.489C71.0726 88.2516 70.5786 88.1251 70.1352 87.9082C69.6797 87.707 69.2303 87.4503 68.7026 87.3262C68.1917 87.1792 67.7181 86.9262 67.1723 86.8587C66.9048 86.8105 66.6482 86.737 66.3891 86.6659C66.1301 86.596 65.8445 86.6129 65.5794 86.5587C65.048 86.4551 64.489 86.4454 63.9287 86.4298C63.6527 86.3828 63.3636 86.4177 63.078 86.4334C62.7924 86.4611 62.5045 86.4273 62.2153 86.4551C61.6357 86.5478 61.0489 86.5334 60.4706 86.6478C59.8886 86.7153 59.3138 86.8081 58.756 86.9081C58.1908 86.9804 57.6619 87.1202 57.1414 87.1889C55.1087 87.5925 53.4989 87.8516 53.4989 87.8516Z" fill="#39393F"/>
<path d="M-73.4761 245.558C-73.4761 245.558 -75.0931 232.079 -68.0841 223.453C-61.0751 214.826 -51.3694 202.965 -41.665 204.582C-31.9606 206.199 -23.872 232.079 11.1731 228.844C46.2193 225.609 55.9237 207.277 55.9237 207.277C55.9237 207.277 81.8042 214.826 84.4996 233.157C84.4996 233.157 88.8132 250.95 102.831 262.812C116.849 274.673 110.919 308.102 106.605 313.493C106.605 313.493 152.676 348.09 168.313 383.136C183.949 418.182 180.698 461.485 174.337 504.833C168.511 544.538 173.132 568.627 173.132 568.627H-59.4171C-59.4171 568.627 -80.4863 485.488 -41.1264 403.534C-1.76655 321.58 -82.1021 284.917 -73.4761 245.558Z" fill="#FC7FB2"/>
<path d="M168.314 383.136C164.353 374.258 158.436 365.412 151.812 357.146C146.143 358.821 140.303 360.066 134.28 360.762C106.413 363.985 79.0003 356.442 53.6042 345.47C28.1732 334.484 4.33635 318.407 -15.4074 298.965C-32.9607 281.681 -48.5716 260.854 -54.9987 236.766C-60.4244 234.162 -65.8646 231.584 -71.3265 229.054C-74.5075 236.924 -73.4761 245.56 -73.4761 245.56C-82.1021 284.92 -1.76656 321.583 -41.1264 403.535C-80.4863 485.488 -59.4159 568.627 -59.4159 568.627H173.133C173.133 568.627 168.512 544.539 174.338 504.833C180.699 461.485 183.95 418.182 168.314 383.136Z" fill="#F475A0"/>
<path d="M-62.0909 292.602L-8.15993 258.407C-8.15993 258.407 23.3824 332.003 36.257 359.4C41.2791 370.085 110.265 428.74 126.638 437.159C143.012 445.578 171.777 469.029 133.107 447.362C133.107 447.362 182.711 484.985 130.739 454.586C130.739 454.586 181.723 490.515 124.909 458.282C124.909 458.282 162.056 487.862 118.311 462.057C118.311 462.057 36.8354 426.062 4.45196 397.548C-27.9326 369.036 -62.0909 292.602 -62.0909 292.602Z" fill="#FFD5D5"/>
<path d="M112.531 431.244C112.531 431.244 164.235 427.266 121.58 437.588C78.9246 447.911 112.531 431.244 112.531 431.244Z" fill="#FFD5D5"/>
<path d="M1.47094 266.855L-64.0381 300.014C-64.0381 300.014 -96.3877 238.549 -55.9506 209.435C-28.8894 189.95 1.47094 266.855 1.47094 266.855Z" fill="#FC7FB2"/>
<path d="M114.872 319.551C114.872 319.551 115.858 316.825 136.193 326.272C141.188 328.593 148.311 335.489 148.058 339.665C147.548 348.084 136.185 367.346 133.793 365.962C130.662 364.153 141.327 341.555 141.327 341.555C141.327 341.555 126.188 364.137 122.151 363.892C118.115 363.648 137.633 335.66 137.633 335.66C137.633 335.66 119.557 353.202 116.377 352.2C113.197 351.197 130.612 331.185 130.612 331.185C130.612 331.185 110.873 349.437 111.166 344.593C111.459 339.749 124.057 327.349 124.057 327.349L114.872 319.551Z" fill="#FFD5D5"/>
<path d="M15.565 492.158C15.565 492.158 36.8366 539.441 12.3406 574" stroke="#009E9B" stroke-miterlimit="10"/>
<path d="M21.9722 508.756C21.9722 508.756 19.7106 493.122 33.6877 488.568C33.6877 488.568 34.6624 503.163 21.9722 508.756Z" fill="#00B7AE"/>
<path d="M20.6277 509.749C20.6277 509.749 6.98438 512.98 3.4624 499.541C3.4624 499.541 16.1646 497.642 20.6277 509.749Z" fill="#00B7AE"/>
<path d="M17.2864 495.534C17.2864 495.534 29.2223 484.43 29.5862 476.216C29.9634 467.705 21.1108 486.236 21.1108 486.236C21.1108 486.236 30.6225 462.785 26.1799 460.821C21.7374 458.857 17.8045 487.062 17.8045 487.062C17.8045 487.062 19.7734 463.298 14.35 461.8C8.92549 460.299 14.7561 488.043 14.7561 488.043C14.7561 488.043 7.26994 469.494 4.53236 469.959C1.79358 470.423 14.1356 490.832 14.1356 490.832C14.1356 490.832 5.6662 479.775 3.65037 483.131C1.63574 486.49 17.2864 495.534 17.2864 495.534Z" fill="#FFA9CC"/>
<path d="M116.029 570.604C116.029 570.604 123.871 508.035 184.566 478.972" stroke="#009E9B" stroke-miterlimit="10"/>
<path d="M179.332 481.873C179.332 481.873 182.59 465.811 189.723 461.463C197.114 456.959 185.502 473.915 185.502 473.915C185.502 473.915 201.139 453.963 205.371 456.956C209.603 459.949 186.609 477.262 186.609 477.262C186.609 477.262 206.731 463.872 211.096 467.965C215.46 472.059 187.433 480.455 187.433 480.455C187.433 480.455 208.172 478.036 209.285 480.7C210.397 483.364 185.289 482.373 185.289 482.373C185.289 482.373 199.887 484.498 198.013 487.937C196.138 491.375 179.332 481.873 179.332 481.873Z" fill="#FFA9CC"/>
<path d="M159.612 494.738C159.612 494.738 172.031 484.976 182.952 494.815C182.952 494.815 170.79 502.944 159.612 494.738Z" fill="#00B7AE"/>
<path d="M158.079 494.069C158.079 494.069 148.47 483.859 158.359 474.1C158.359 474.1 166.345 484.159 158.079 494.069Z" fill="#00B7AE"/>
<path d="M145.51 509.296C145.51 509.296 158.364 500.115 168.823 510.444C168.823 510.444 156.302 518.006 145.51 509.296Z" fill="#00B7AE"/>
<path d="M144.012 508.557C144.012 508.557 134.882 497.917 145.208 488.622C145.208 488.622 152.723 499.038 144.012 508.557Z" fill="#00B7AE"/>
<path d="M234.183 443.783C234.183 443.783 220.528 527.192 173.134 568.628C173.134 568.628 247.035 549.014 262.298 476.719" stroke="#009E9B" stroke-miterlimit="10"/>
<path d="M228.632 472.204C228.632 472.204 201.576 459.468 219.303 422.262C219.303 422.262 229.39 426.405 232.166 434.786C232.166 434.786 240.37 424.173 256.417 430.89C256.417 430.89 257.897 461.669 228.632 472.204Z" fill="#FC7FB2"/>
<path d="M216.775 501.163C216.775 501.163 234.992 474.056 239.727 481.997C244.464 489.939 216.775 501.163 216.775 501.163Z" fill="#009E9B"/>
<path d="M212.133 513.97C212.133 513.97 219.488 485.646 210.714 487.741C201.941 489.838 212.133 513.97 212.133 513.97Z" fill="#009E9B"/>
<path d="M256.125 496.59C256.125 496.59 271.426 490.715 274.53 482.961C277.747 474.925 262.951 489.187 262.951 489.187C262.951 489.187 280.035 470.459 276.383 466.781C272.731 463.104 259.466 488.649 259.466 488.649C259.466 488.649 269.337 466.586 264.576 462.961C259.816 459.335 256.18 488.366 256.18 488.366C256.18 488.366 255.13 467.513 252.317 466.857C249.505 466.202 254.644 490.799 254.644 490.799C254.644 490.799 250.13 476.755 247.049 479.173C243.969 481.591 256.125 496.59 256.125 496.59Z" fill="#FFA9CC"/>
<path d="M240.786 522.044C240.786 522.044 228.835 514.711 235.819 502.7C235.819 502.7 246.163 510.314 240.786 522.044Z" fill="#00B7AE"/>
</g>
</svg>
