<svg width="35" height="36" viewBox="0 0 35 36" fill="none" xmlns="http://www.w3.org/2000/svg">
<path d="M12.6974 20.2681L12.5435 20.1866C11.9185 19.8695 11.4022 19.3532 11.0851 18.7282L11.0036 18.5743C10.6866 17.9583 9.81701 17.9583 9.49998 18.5743L9.41846 18.7282C9.10143 19.3532 8.58513 19.8695 7.96013 20.1866L7.80614 20.2681C7.1902 20.5851 7.1902 21.4547 7.80614 21.7717L7.96013 21.8532C8.58513 22.1703 9.10143 22.6866 9.41846 23.3116L9.49998 23.4656C9.81701 24.0815 10.6866 24.0815 11.0036 23.4656L11.0851 23.3116C11.4022 22.6866 11.9185 22.1703 12.5435 21.8532L12.6974 21.7717C13.3134 21.4547 13.3134 20.5851 12.6974 20.2681Z" fill="white"/>
<path d="M16.5471 16.183L16.692 15.8931C17.154 14.9873 17.8786 14.2627 18.7844 13.8007L19.0743 13.6558C20.0525 13.1576 20.6594 12.1612 20.6594 11.0652C20.6594 9.96919 20.0525 8.97281 19.0743 8.46556L18.7844 8.32064C17.8786 7.85868 17.154 7.13404 16.692 6.22824L16.5471 5.93839C16.0489 4.96013 15.0525 4.35324 13.9565 4.35324C12.8605 4.35324 11.8641 4.96013 11.3569 5.93839L11.2119 6.22824C10.75 7.13404 10.0253 7.85868 9.11955 8.32064L8.8297 8.46556C7.85143 8.96375 7.24455 9.96013 7.24455 11.0652C7.24455 12.1703 7.85143 13.1576 8.8297 13.6648L9.11955 13.8098C10.0253 14.2717 10.75 14.9964 11.2119 15.9022L11.3569 16.192C11.8551 17.1703 12.8514 17.7772 13.9565 17.7772C15.0616 17.7772 16.0489 17.1703 16.5561 16.192L16.5471 16.183ZM14.2735 14.6612L14.1286 14.9511C14.1286 14.9511 14.0743 15.0598 13.9565 15.0598C13.8388 15.0598 13.7935 14.9782 13.7844 14.9511L13.6395 14.6612C12.9148 13.2391 11.7826 12.1069 10.3605 11.3822L10.0706 11.2373C10.0706 11.2373 9.96194 11.183 9.96194 11.0652C9.96194 10.9474 10.0435 10.9022 10.0706 10.8931L10.3605 10.7482C11.7826 10.0235 12.9148 8.89129 13.6395 7.46919L13.7844 7.17933C13.7844 7.17933 13.8388 7.07064 13.9565 7.07064C14.0743 7.07064 14.1196 7.1431 14.1286 7.17933L14.2735 7.46919C14.9982 8.89129 16.1304 10.0235 17.5525 10.7482L17.8424 10.8931C17.8424 10.8931 17.9511 10.9474 17.9511 11.0652C17.9511 11.183 17.8695 11.2282 17.8424 11.2373L17.5525 11.3822C16.1304 12.1069 14.9982 13.2391 14.2735 14.6612Z" fill="white"/>
<path d="M12.6974 26.9076L12.5435 26.8261C11.9185 26.509 11.4022 25.9927 11.0851 25.3677L11.0036 25.2137C10.6866 24.5978 9.81701 24.5978 9.49998 25.2137L9.41846 25.3677C9.10143 25.9927 8.58513 26.509 7.96013 26.8261L7.80614 26.9076C7.1902 27.2246 7.1902 28.0942 7.80614 28.4112L7.96013 28.4927C8.58513 28.8098 9.10143 29.3261 9.41846 29.9511L9.49998 30.1051C9.81701 30.721 10.6866 30.721 11.0036 30.1051L11.0851 29.9511C11.4022 29.3261 11.9185 28.8098 12.5435 28.4927L12.6974 28.4112C13.3134 28.0942 13.3134 27.2246 12.6974 26.9076Z" fill="white"/>
<path d="M25.8043 19.6612H15.8406C15.0888 19.6612 14.4819 20.2681 14.4819 21.0199C14.4819 21.7717 15.0888 22.3786 15.8406 22.3786H25.8043C26.5561 22.3786 27.163 21.7717 27.163 21.0199C27.163 20.2681 26.5561 19.6612 25.8043 19.6612Z" fill="white"/>
<path d="M25.8043 26.3007H15.8406C15.0888 26.3007 14.4819 26.9076 14.4819 27.6594C14.4819 28.4112 15.0888 29.0181 15.8406 29.0181H25.8043C26.5561 29.0181 27.163 28.4112 27.163 27.6594C27.163 26.9076 26.5561 26.3007 25.8043 26.3007Z" fill="white"/>
<path d="M25.8043 13.0127H23.0869C22.3351 13.0127 21.7282 13.6195 21.7282 14.3714C21.7282 15.1232 22.3351 15.7301 23.0869 15.7301H25.8043C26.5561 15.7301 27.163 15.1232 27.163 14.3714C27.163 13.6195 26.5561 13.0127 25.8043 13.0127Z" fill="white"/>
<path d="M25.8043 6.37317H23.0869C22.3351 6.37317 21.7282 6.98006 21.7282 7.73187C21.7282 8.48368 22.3351 9.09056 23.0869 9.09056H25.8043C26.5561 9.09056 27.163 8.48368 27.163 7.73187C27.163 6.98006 26.5561 6.37317 25.8043 6.37317Z" fill="white"/>
<path d="M23.9927 0.0325928H11.3116C5.56883 0.0325928 0.894913 4.70651 0.894913 10.4493V24.942C0.894913 30.6848 5.56883 35.3587 11.3116 35.3587H23.9927C29.7355 35.3587 34.4094 30.6848 34.4094 24.942V10.4493C34.4094 4.70651 29.7355 0.0325928 23.9927 0.0325928ZM31.692 24.942C31.692 29.1902 28.2409 32.6413 23.9927 32.6413H11.3116C7.06339 32.6413 3.6123 29.1902 3.6123 24.942V10.4493C3.6123 6.20107 7.06339 2.74998 11.3116 2.74998H23.9927C28.2409 2.74998 31.692 6.20107 31.692 10.4493V24.942Z" fill="white"/>
</svg>
